<?xml version="1.0" encoding="UTF-8"?><svg id="Ebene_2" xmlns="http://www.w3.org/2000/svg" viewBox="0 0 235.65 46.72"><defs><style>.cls-1{fill:#1d1d1b;}</style></defs><g id="Ebene_1-2"><path class="cls-1" d="M38.86,30.37c0-6.31,7.45-8.69,17.18-8.8v-3.16c0-4.29-2.43-6.31-5.9-6.31s-4.04,1.97-4.5,3.83c-.41,1.66-.78,3.16-3.05,3.16-1.76,0-2.74-1.04-2.74-2.59,0-3.1,3.83-6.52,10.76-6.52,6.57,0,11.33,3.05,11.33,9.52v13.19c0,.93.57,1.4,1.14,1.76.47.36.88.67.88,1.29,0,1.09-1.45,1.66-3.21,1.66-2.59,0-4.24-1.29-4.6-3.36-2.07,2.12-5.07,3.36-8.59,3.36-5.17,0-8.69-2.74-8.69-7.04ZM50.61,34.15c2.17,0,4.19-.88,5.43-2.33v-7.3c-.93-.47-2.02-.62-3.36-.62-4.71,0-8.02,1.91-8.02,5.23,0,3,2.64,5.02,5.95,5.02Z"/><path class="cls-1" d="M67.12,35.7c0-.72.47-1.03.93-1.4.57-.36.98-.72.98-1.55V15c0-.98-.52-1.4-1.03-1.76-.47-.36-.93-.72-.93-1.5,0-.67.57-1.24,1.29-1.24h4.81c1.09,0,1.76.72,1.76,1.86v2.28c2.33-2.85,5.74-4.66,9.52-4.66,4.81,0,8.23,3,8.23,7.97v14.8c0,.83.47,1.19.98,1.55.47.36.93.67.93,1.4s-.52,1.19-1.29,1.19h-7.14c-.78,0-1.29-.47-1.29-1.19s.47-1.03.93-1.4c.52-.36.98-.72.98-1.55v-14.54c0-2.95-2.02-4.86-4.97-4.86-2.79,0-5.33,1.66-6.88,4.24v15.16c0,.83.47,1.19.98,1.55.47.36.93.67.93,1.4s-.47,1.19-1.24,1.19h-7.14c-.78,0-1.35-.47-1.35-1.19Z"/><path class="cls-1" d="M95.42,42.33c0-1.5,1.09-2.64,2.85-2.64,1.6,0,2.38,1.03,3.05,2.12.57.98,1.09,1.91,2.48,1.91,1.71,0,2.79-1.66,4.09-4.61l.67-1.5-10.3-22.97c-.31-.62-.83-1.03-1.4-1.35-.67-.41-1.19-.78-1.19-1.66,0-.67.52-1.14,1.29-1.14h7.97c.78,0,1.24.47,1.24,1.14,0,.78-.41,1.14-.93,1.45-.52.31-.93.72-.62,1.55l6.83,16.2,6.73-16.2c.36-.83-.16-1.19-.78-1.55-.57-.31-1.09-.72-1.09-1.45,0-.67.52-1.14,1.29-1.14h4.66c.78,0,1.24.47,1.24,1.14,0,.88-.52,1.24-1.14,1.6-.62.31-1.09.67-1.4,1.4l-10.81,25.2c-1.71,4.04-3.31,6.88-8.02,6.88-3.88,0-6.73-1.91-6.73-4.4Z"/><path class="cls-1" d="M125.9,35.7c0-.72.47-1.03.93-1.4.57-.36.98-.72.98-1.55V15c0-.98-.52-1.4-1.03-1.76-.47-.36-.93-.72-.93-1.5,0-.67.57-1.24,1.29-1.24h4.81c1.09,0,1.76.72,1.76,1.86v2.02c2.17-2.74,5.38-4.4,8.8-4.4,3.62,0,6.36,1.76,7.45,4.81,2.17-2.95,5.59-4.81,9.26-4.81,4.6,0,7.86,2.9,7.86,7.76v15.01c0,.83.47,1.19.98,1.55.47.36.93.67.93,1.4s-.52,1.19-1.29,1.19h-7.14c-.78,0-1.29-.47-1.29-1.19s.47-1.03.93-1.4c.52-.36.98-.72.98-1.55v-14.75c0-2.85-1.91-4.66-4.55-4.66s-4.81,1.5-6.21,3.93v15.47c0,.83.47,1.19.98,1.55.47.36.93.67.93,1.4s-.52,1.19-1.29,1.19h-7.14c-.83,0-1.29-.47-1.29-1.19s.47-1.03.93-1.4c.52-.36.98-.72.98-1.55v-14.75c0-2.85-1.86-4.66-4.61-4.66-2.54,0-4.81,1.5-6.21,3.98v15.42c0,.83.47,1.19.98,1.55.47.36.93.67.93,1.4s-.47,1.19-1.24,1.19h-7.14c-.78,0-1.35-.47-1.35-1.19Z"/><path class="cls-1" d="M172.26,35.7c0-.72.47-1.03.93-1.4.57-.36.98-.72.98-1.55V15c0-.98-.52-1.4-1.03-1.76-.47-.36-.93-.72-.93-1.5,0-.67.57-1.24,1.29-1.24h4.81c1.09,0,1.76.72,1.76,1.86v20.39c0,.83.47,1.19.98,1.55.47.36.93.67.93,1.4s-.47,1.19-1.24,1.19h-7.14c-.78,0-1.35-.47-1.35-1.19ZM173.3,3.36c0-2.02,1.4-3.36,3.57-3.36s3.57,1.35,3.57,3.36-1.4,3.42-3.57,3.42-3.57-1.4-3.57-3.42Z"/><path class="cls-1" d="M185.56,35.55c0-.31.15-.78.41-1.19l15.11-21.68h-8.17c-2.17,0-3.1,1.76-3.88,3.21-.62,1.09-1.14,2.02-2.02,2.02-.72,0-1.19-.52-1.19-1.29v-4.29c0-1.14.72-1.81,1.91-1.81h18.68c.93,0,1.5.52,1.5,1.35,0,.31-.1.78-.41,1.19l-15.06,21.68h8.59c2.17,0,3.16-1.81,3.93-3.36.62-1.19,1.09-2.12,1.97-2.12.78,0,1.19.52,1.19,1.29v4.55c0,1.14-.72,1.81-1.86,1.81h-19.2c-.93,0-1.5-.52-1.5-1.35Z"/><path class="cls-1" d="M211.69,23.7c0-8.12,5.33-13.71,13.45-13.71,6,0,10.09,3,10.09,7.35,0,5.43-6.21,7.55-17.23,7.71,1.03,4.5,3.98,8.33,8.95,8.33,3.73,0,5.38-1.81,6.52-3.05.57-.62.98-.98,1.45-.98.36,0,.72.26.72,1.03,0,2.9-3.67,7.04-10.71,7.04-7.81,0-13.25-5.33-13.25-13.71ZM217.69,23.08c8.85-.16,11.95-2.17,11.95-5.85,0-2.95-1.91-5.12-5.02-5.12-4.24,0-7.04,4.04-7.04,9,0,.67,0,1.29.1,1.97Z"/><rect class="cls-1" y="9.25" width="29.6" height="29.6"/></g></svg>